<svg version="1.1" viewBox="0.0 0.0 960.0 540.0" fill="none" stroke="none" stroke-linecap="square" stroke-miterlimit="10" xmlns:xlink="http://www.w3.org/1999/xlink" xmlns="http://www.w3.org/2000/svg"><clipPath id="p.0"><path d="m0 0l960.0 0l0 540.0l-960.0 0l0 -540.0z" clip-rule="nonzero"/></clipPath><g clip-path="url(#p.0)"><path fill="#ffffff" d="m0 0l960.0 0l0 540.0l-960.0 0z" fill-rule="evenodd"/><path fill="#000000" fill-opacity="0.0" d="m392.8504 270.0l0 0c0 -48.131393 39.01819 -87.14961 87.1496 -87.14961l0 0c23.113525 0 45.280334 9.181808 61.624084 25.525528c16.343689 16.343735 25.525513 38.510574 25.525513 61.624084l0 0c0 48.13141 -39.01819 87.1496 -87.1496 87.1496l0 0c-48.13141 0 -87.1496 -39.01819 -87.1496 -87.1496z" fill-rule="evenodd"/><path stroke="#000000" stroke-width="4.0" stroke-linejoin="round" stroke-linecap="butt" d="m392.8504 270.0l0 0c0 -48.131393 39.01819 -87.14961 87.1496 -87.14961l0 0c23.113525 0 45.280334 9.181808 61.624084 25.525528c16.343689 16.343735 25.525513 38.510574 25.525513 61.624084l0 0c0 48.13141 -39.01819 87.1496 -87.1496 87.1496l0 0c-48.13141 0 -87.1496 -39.01819 -87.1496 -87.1496z" fill-rule="evenodd"/><path fill="#000000" d="m540.34644 254.76303l0 4.624939l-60.346436 46.209717l-60.346466 -46.209717l0 -4.624939l60.346466 46.209717z" fill-rule="evenodd"/></g></svg>